<svg width="33" height="20" viewBox="0 0 33 20" fill="none" xmlns="http://www.w3.org/2000/svg">
<path fill-rule="evenodd" clip-rule="evenodd" d="M20 7C20 8.10457 19.1046 9 18 9C16.8954 9 16 8.10457 16 7C16 5.89543 16.8954 5 18 5C19.1046 5 20 5.89543 20 7ZM22 7C22 9.20914 20.2091 11 18 11C15.7909 11 14 9.20914 14 7C14 4.79086 15.7909 3 18 3C20.2091 3 22 4.79086 22 7ZM16 12C13.7909 12 12 13.7909 12 16V17H14V16C14 14.8954 14.8954 14 16 14H20C21.1046 14 22 14.8954 22 16V17H24V16C24 13.7909 22.2091 12 20 12H16Z" fill="black"/>
</svg>
